<svg version="1.1" id="Layer_1" xmlns="http://www.w3.org/2000/svg" xmlns:xlink="http://www.w3.org/1999/xlink" x="0px" y="0px"
	 width="100%" viewBox="0 0 512 392" enable-background="new 0 0 512 392" xml:space="preserve">
<path fill="#FDFDFD" opacity="1.000000" stroke="none" 
	d="
M324.000000,393.000000 
	C216.029709,393.000000 108.559410,393.000000 1.044558,393.000000 
	C1.044558,262.399170 1.044558,131.798294 1.044558,1.098718 
	C171.553635,1.098718 342.107361,1.098718 512.830566,1.098718 
	C512.830566,131.666489 512.830566,262.333221 512.830566,393.000000 
	C450.131592,393.000000 387.315796,393.000000 324.000000,393.000000 
M182.084381,129.105820 
	C181.043701,124.740860 180.003006,120.375908 179.054504,115.339630 
	C179.015244,114.889709 178.975998,114.439789 179.353958,113.504158 
	C177.061371,106.365135 174.829849,99.205452 172.426102,92.104057 
	C171.928650,90.634407 173.526947,87.717705 170.063675,87.333069 
	C170.030609,86.886810 169.997543,86.440552 170.339096,85.556587 
	C167.825974,79.171806 165.521393,72.694420 162.739288,66.429085 
	C160.115814,60.521000 156.989594,54.836170 153.715729,48.318985 
	C152.041031,49.589958 150.480789,50.774075 148.419113,51.925812 
	C148.228302,52.190269 148.037491,52.454727 147.248718,52.872307 
	C146.933411,53.603374 146.618088,54.334442 145.647415,55.430321 
	C140.755524,56.960144 139.153610,60.269341 141.422028,64.929573 
	C143.893417,70.006721 145.848465,75.678642 149.511627,79.760307 
	C156.996414,88.100182 158.636490,98.948105 162.489639,108.600792 
	C167.608597,121.424561 170.184509,135.388931 172.735413,149.071609 
	C174.687546,159.542557 174.906738,170.336609 175.122925,181.387650 
	C175.361145,188.936600 175.599365,196.485535 175.904007,204.939499 
	C175.066299,213.465836 174.225418,221.991882 173.392883,230.518723 
	C173.150635,232.999893 173.217957,235.550568 172.653259,237.954224 
	C170.220657,248.308701 167.219666,258.544250 165.165314,268.968872 
	C163.086334,279.518494 159.085770,289.272095 154.681763,298.945953 
	C152.110977,304.592896 149.777863,310.357910 146.978363,315.887848 
	C144.576172,320.632904 142.053970,325.412231 138.880203,329.648468 
	C134.609344,335.348969 131.250305,341.796448 125.466080,346.355316 
	C123.284271,348.074921 121.895416,350.770447 119.808952,352.647461 
	C115.510521,356.514587 110.985893,360.130280 106.007530,363.783264 
	C105.659630,363.897247 105.311722,364.011230 104.407654,364.082336 
	C104.270065,364.387939 104.132484,364.693512 103.625282,365.324524 
	C105.980583,366.769714 108.252762,369.267212 110.706909,369.461029 
	C117.821907,370.023071 125.017387,369.466431 132.166336,369.739716 
	C135.891281,369.882141 138.195740,368.197723 140.156998,365.467529 
	C143.190201,361.245270 145.876297,356.713226 149.322220,352.860504 
	C156.299240,345.059814 159.465256,335.272858 163.769714,326.124451 
	C166.819489,319.642700 168.826462,312.648712 171.036957,305.798828 
	C174.123978,296.232819 177.152954,286.639404 179.826416,276.952698 
	C180.965149,272.826813 181.092728,268.427643 181.764862,264.166107 
	C184.132401,249.155060 187.613144,234.225937 188.680771,219.124985 
	C190.378906,195.106201 190.036758,170.987915 186.176376,147.085556 
	C185.629364,143.698608 184.704834,140.372665 184.131668,136.206924 
	C183.436722,134.106888 182.741776,132.006866 182.084381,129.105820 
M164.631317,367.367981 
	C164.631317,367.367981 164.635147,367.447510 165.011307,368.068970 
	C166.000671,368.589661 166.983109,369.546204 167.980515,369.562073 
	C175.974228,369.689453 183.975922,369.781433 191.961121,369.494171 
	C193.200165,369.449585 195.067154,367.623718 195.456375,366.278137 
	C198.230118,356.689392 200.723312,347.018768 203.251083,337.359863 
	C205.759872,327.773499 209.116608,318.299286 210.494934,308.548828 
	C213.744965,285.557495 216.254532,262.453033 218.610626,239.348129 
	C219.520203,230.428375 219.614044,221.372147 219.363831,212.398056 
	C218.766602,190.978241 221.345749,169.412460 216.261566,148.169128 
	C215.124130,143.416550 215.475769,138.320572 214.981674,133.398758 
	C213.154785,115.200706 212.720963,96.852776 207.080688,79.135178 
	C203.973526,69.374718 202.530746,59.097088 199.914169,49.164162 
	C197.350082,39.430664 194.248932,29.838648 191.116760,19.285822 
	C189.146637,21.462376 188.022247,22.704594 186.190018,24.097572 
	C182.125183,26.651783 178.076843,29.232695 173.991180,31.753143 
	C169.360977,34.609524 169.144211,36.933182 171.428299,41.810318 
	C174.576248,48.532009 177.237366,55.510246 179.666031,62.531139 
	C181.575943,68.052429 182.817932,73.804741 184.357269,79.454262 
	C187.876312,92.369728 192.249680,105.126640 194.683533,118.243454 
	C197.307587,132.385361 198.901505,146.829681 199.532333,161.204056 
	C200.476120,182.709641 201.295731,204.215057 198.587219,225.791611 
	C196.339783,243.695007 196.185349,261.825104 191.019318,279.361450 
	C188.713074,287.190094 188.092712,295.515106 185.789871,303.345093 
	C182.512711,314.487732 178.491837,325.417938 174.591583,336.368683 
	C172.224960,343.013397 169.501175,349.531525 166.907928,356.094666 
	C165.906906,358.628082 164.823120,361.128815 163.230255,364.077972 
	C163.671158,365.179413 164.112076,366.280823 164.631317,367.367981 
M389.212494,363.978333 
	C387.519592,362.726471 385.802246,361.506012 384.141052,360.213409 
	C382.649445,359.052734 381.124420,357.909454 379.781677,356.588257 
	C376.678802,353.535187 373.807617,350.237183 370.605591,347.296448 
	C365.308075,342.431213 360.730591,337.027588 357.045502,330.847046 
	C353.939270,325.637238 350.335327,320.680725 347.682709,315.254730 
	C344.236725,308.205963 341.351593,300.866394 338.518982,293.538391 
	C334.259949,282.520081 329.436279,271.624176 326.373871,260.266083 
	C323.314148,248.918121 321.904022,237.097900 320.205200,225.421509 
	C319.283112,219.083801 319.088776,212.620392 318.873840,206.203369 
	C318.235596,187.146820 318.295471,168.164780 322.681641,149.387939 
	C324.564941,141.325806 324.327942,132.732803 326.528717,124.789490 
	C329.256531,114.943825 333.315247,105.441216 337.170990,95.941399 
	C340.582855,87.535172 343.962646,79.092865 349.256866,71.562843 
	C351.855042,67.867378 353.800629,63.713085 355.966858,59.898026 
	C353.572601,58.055103 351.631378,56.560871 349.451477,54.512531 
	C348.684906,53.913464 347.918335,53.314392 346.959015,52.253540 
	C346.666565,52.154724 346.374115,52.055904 345.581421,51.478092 
	C344.152435,50.190853 342.723419,48.903614 340.913391,47.273140 
	C337.284119,54.462090 334.037292,60.708889 330.967468,67.041519 
	C329.037567,71.022697 327.032196,75.020721 325.658813,79.207405 
	C322.561646,88.648827 319.550079,98.137215 317.033051,107.745163 
	C314.017365,119.256569 310.176239,130.791977 309.149689,142.531845 
	C307.283783,163.869949 306.209717,185.391510 306.727539,206.789993 
	C307.195374,226.123322 309.180328,245.575134 312.457581,264.637512 
	C315.216003,280.682343 320.775696,296.247589 325.147339,312.010712 
	C325.706543,314.027100 326.267822,316.152252 327.360992,317.892181 
	C331.913116,325.137512 334.460541,333.356171 338.505096,340.895813 
	C342.392975,348.143402 346.464294,355.216522 351.418304,361.605255 
	C354.882782,366.073120 359.071869,370.602081 366.395386,369.288330 
	C371.394928,368.391449 376.697693,369.332458 381.841553,369.040375 
	C385.235138,368.847717 388.587280,367.924744 391.958008,367.328766 
	C391.959473,366.829773 391.960968,366.330780 391.962433,365.831787 
	C391.282745,365.285858 390.603027,364.739960 389.212494,363.978333 
M309.093994,24.104437 
	C307.485687,22.528723 305.877411,20.953009 303.751831,18.870502 
	C300.199951,31.964205 296.942230,43.522549 293.945526,55.148167 
	C290.972229,66.682930 287.953827,78.221519 285.534088,89.878593 
	C283.625641,99.072472 282.418427,108.425919 281.218231,117.749496 
	C279.442535,131.543381 277.044891,145.339401 276.520813,159.195358 
	C275.377808,189.414246 273.880310,219.694778 277.916626,249.857346 
	C279.579193,262.281342 281.165344,274.715729 282.869415,287.134003 
	C284.876282,301.759033 285.443085,316.546417 290.549530,330.747314 
	C294.679871,342.233795 297.136627,354.316406 300.594299,366.058472 
	C300.965637,367.319611 303.030518,368.873230 304.364960,368.927155 
	C311.346619,369.209412 318.351746,369.205536 325.335846,368.950043 
	C327.354401,368.876160 329.454376,367.869843 331.294830,366.878540 
	C333.647278,365.611481 334.220001,364.050995 331.005676,362.200623 
	C329.241394,358.667969 327.162872,355.254150 325.773224,351.579803 
	C321.997681,341.596802 318.084503,331.632355 315.019989,321.422211 
	C310.926575,307.784058 306.719025,294.081726 304.121307,280.116638 
	C300.395996,260.089844 296.859802,239.885742 295.449921,219.603912 
	C293.371277,189.701248 293.930176,159.721542 299.682587,130.052414 
	C301.762878,119.322891 301.925476,108.396233 305.904266,97.819244 
	C310.125031,86.599152 311.994843,74.509537 315.193115,62.882664 
	C316.470551,58.238697 318.585846,53.828114 320.263855,49.290634 
	C321.954193,44.719917 323.641052,40.145061 325.153137,35.514439 
	C325.371887,34.844517 324.855286,33.431992 324.255951,33.076797 
	C319.394440,30.195541 314.431976,27.484575 309.093994,24.104437 
M246.742645,302.912323 
	C249.145782,303.621826 251.548920,304.331329 254.673874,305.249481 
	C260.137360,306.409424 260.392059,311.829407 263.005554,315.435150 
	C264.244019,315.314758 265.530945,315.189667 267.049896,315.042023 
	C267.049896,317.664703 267.049896,320.058563 267.049896,322.604248 
	C265.291656,322.343597 263.880676,322.134430 262.469696,321.925232 
	C262.739563,322.402771 263.009430,322.880280 263.279266,323.357788 
	C260.036377,325.870361 256.632965,328.208710 253.627228,330.978638 
	C252.373260,332.134216 251.219116,334.250763 251.311020,335.856445 
	C251.602386,340.946442 252.516647,345.999756 253.161835,351.070862 
	C253.490524,353.654236 254.491684,355.164856 257.145935,356.564972 
	C260.789978,358.487244 263.649109,361.892151 266.860565,364.643097 
	C267.749725,365.404755 268.664825,366.676636 269.620331,366.727325 
	C273.910156,366.954742 278.218842,366.826385 282.965942,366.826385 
	C282.861237,364.757538 283.039001,363.090485 282.656097,361.564148 
	C280.539062,353.125183 277.747620,344.817963 276.201660,336.281830 
	C273.739990,322.689453 271.164154,309.012634 270.257629,295.264648 
	C268.070648,262.098145 266.614685,228.878036 265.288086,195.662598 
	C264.683319,180.520584 265.063049,165.338593 265.027557,150.174637 
	C264.921478,104.851059 264.797333,59.527443 264.787964,14.203813 
	C264.787079,9.841393 263.175842,8.030824 258.792053,8.232163 
	C254.135544,8.446028 249.461060,8.234941 244.795441,8.292459 
	C239.981720,8.351801 233.037537,6.657698 230.908234,9.106687 
	C228.378326,12.016419 229.824615,18.526211 229.830490,23.475655 
	C229.887878,71.797806 230.311325,120.121750 230.018478,168.441467 
	C229.719666,217.741913 229.567444,267.054382 221.459488,315.962646 
	C219.186798,329.671753 218.793823,343.683624 214.815369,357.157257 
	C213.915070,360.206299 213.960693,363.534637 213.537445,367.008850 
	C217.088593,367.008850 219.918167,366.867188 222.727875,367.043152 
	C226.628082,367.287415 230.080185,367.294098 230.218781,361.917908 
	C230.236313,361.237732 232.079391,360.638580 233.033600,359.942749 
	C237.156387,356.936310 242.263153,355.052979 242.367340,348.373077 
	C242.427628,344.507172 244.354416,340.693542 245.227554,336.808350 
	C245.732407,334.561859 245.849457,332.588165 242.821106,331.339111 
	C240.172195,330.246521 237.925339,328.040253 235.703339,326.094696 
	C233.868973,324.488586 232.330673,322.544312 230.661179,320.749878 
	C230.264648,321.036163 229.868134,321.322449 229.471619,321.608704 
	C229.471619,319.650055 229.471619,317.691376 229.471619,315.427643 
	C231.015289,315.427643 232.415817,315.427643 233.708481,315.427643 
	C236.703369,306.979340 236.704300,306.981628 245.128952,303.525665 
	C245.428238,303.402863 245.670868,303.141937 246.742645,302.912323 
z"/>
<path fill="#050505" opacity="1.000000" stroke="none" 
	d="
M245.939926,302.945404 
	C245.670868,303.141937 245.428238,303.402863 245.128952,303.525665 
	C236.704300,306.981628 236.703369,306.979340 233.708481,315.427643 
	C232.415817,315.427643 231.015289,315.427643 229.471619,315.427643 
	C229.471619,317.691376 229.471619,319.650055 229.471619,321.608704 
	C229.868134,321.322449 230.264648,321.036163 230.661179,320.749878 
	C232.330673,322.544312 233.868973,324.488586 235.703339,326.094696 
	C237.925339,328.040253 240.172195,330.246521 242.821106,331.339111 
	C245.849457,332.588165 245.732407,334.561859 245.227554,336.808350 
	C244.354416,340.693542 242.427628,344.507172 242.367340,348.373077 
	C242.263153,355.052979 237.156387,356.936310 233.033600,359.942749 
	C232.079391,360.638580 230.236313,361.237732 230.218781,361.917908 
	C230.080185,367.294098 226.628082,367.287415 222.727875,367.043152 
	C219.918167,366.867188 217.088593,367.008850 213.537445,367.008850 
	C213.960693,363.534637 213.915070,360.206299 214.815369,357.157257 
	C218.793823,343.683624 219.186798,329.671753 221.459488,315.962646 
	C229.567444,267.054382 229.719666,217.741913 230.018478,168.441467 
	C230.311325,120.121750 229.887878,71.797806 229.830490,23.475655 
	C229.824615,18.526211 228.378326,12.016419 230.908234,9.106687 
	C233.037537,6.657698 239.981720,8.351801 244.795441,8.292459 
	C249.461060,8.234941 254.135544,8.446028 258.792053,8.232163 
	C263.175842,8.030824 264.787079,9.841393 264.787964,14.203813 
	C264.797333,59.527443 264.921478,104.851059 265.027557,150.174637 
	C265.063049,165.338593 264.683319,180.520584 265.288086,195.662598 
	C266.614685,228.878036 268.070648,262.098145 270.257629,295.264648 
	C271.164154,309.012634 273.739990,322.689453 276.201660,336.281830 
	C277.747620,344.817963 280.539062,353.125183 282.656097,361.564148 
	C283.039001,363.090485 282.861237,364.757538 282.965942,366.826385 
	C278.218842,366.826385 273.910156,366.954742 269.620331,366.727325 
	C268.664825,366.676636 267.749725,365.404755 266.860565,364.643097 
	C263.649109,361.892151 260.789978,358.487244 257.145935,356.564972 
	C254.491684,355.164856 253.490524,353.654236 253.161835,351.070862 
	C252.516647,345.999756 251.602386,340.946442 251.311020,335.856445 
	C251.219116,334.250763 252.373260,332.134216 253.627228,330.978638 
	C256.632965,328.208710 260.036377,325.870361 263.279266,323.357788 
	C263.009430,322.880280 262.739563,322.402771 262.469696,321.925232 
	C263.880676,322.134430 265.291656,322.343597 267.049896,322.604248 
	C267.049896,320.058563 267.049896,317.664703 267.049896,315.042023 
	C265.530945,315.189667 264.244019,315.314758 263.005554,315.435150 
	C260.392059,311.829407 260.137360,306.409424 254.241028,304.820007 
	C253.510605,303.597107 253.213058,302.803650 252.901306,301.746002 
	C252.834274,300.782349 252.781433,300.082855 252.800903,299.084229 
	C252.921463,297.850616 252.969727,296.916138 252.944122,295.603516 
	C252.266861,293.455841 251.663467,291.686279 251.113770,290.074219 
	C248.865448,291.410156 246.979874,292.530548 245.732468,293.271729 
	C245.918060,295.349274 246.077347,297.132324 246.166351,299.313904 
	C246.044037,300.790100 245.991989,301.867767 245.939926,302.945404 
z"/>
<path fill="#050505" opacity="1.000000" stroke="none" 
	d="
M163.777069,363.644440 
	C164.823120,361.128815 165.906906,358.628082 166.907928,356.094666 
	C169.501175,349.531525 172.224960,343.013397 174.591583,336.368683 
	C178.491837,325.417938 182.512711,314.487732 185.789871,303.345093 
	C188.092712,295.515106 188.713074,287.190094 191.019318,279.361450 
	C196.185349,261.825104 196.339783,243.695007 198.587219,225.791611 
	C201.295731,204.215057 200.476120,182.709641 199.532333,161.204056 
	C198.901505,146.829681 197.307587,132.385361 194.683533,118.243454 
	C192.249680,105.126640 187.876312,92.369728 184.357269,79.454262 
	C182.817932,73.804741 181.575943,68.052429 179.666031,62.531139 
	C177.237366,55.510246 174.576248,48.532009 171.428299,41.810318 
	C169.144211,36.933182 169.360977,34.609524 173.991180,31.753143 
	C178.076843,29.232695 182.125183,26.651783 186.907059,24.132141 
	C188.564087,25.383833 189.982407,26.467062 190.366638,27.839752 
	C192.913010,36.936710 195.267151,46.088131 197.626724,55.236557 
	C200.422913,66.077820 203.570526,76.850327 205.810394,87.807060 
	C208.058090,98.802155 210.016144,109.933029 210.963409,121.100899 
	C212.741028,142.058487 214.047699,163.072144 214.860031,184.089157 
	C215.314438,195.845871 214.380432,207.656082 214.076889,219.442322 
	C213.437103,244.284317 213.875229,269.195618 207.199844,293.519958 
	C205.220734,300.731628 204.492371,308.293915 203.315369,315.715271 
	C202.719437,319.472839 202.838348,323.390045 201.874619,327.034241 
	C199.051559,337.709076 196.078125,348.356812 192.718597,358.873016 
	C190.094925,367.085815 189.799088,366.939392 180.568192,367.011505 
	C175.256378,367.053009 169.946106,367.295502 164.635147,367.447510 
	C164.635147,367.447510 164.631317,367.367981 164.696289,366.993164 
	C164.433182,365.627045 164.105133,364.635742 163.777069,363.644440 
z"/>
<path fill="#040404" opacity="1.000000" stroke="none" 
	d="
M309.500275,24.721720 
	C314.431976,27.484575 319.394440,30.195541 324.255951,33.076797 
	C324.855286,33.431992 325.371887,34.844517 325.153137,35.514439 
	C323.641052,40.145061 321.954193,44.719917 320.263855,49.290634 
	C318.585846,53.828114 316.470551,58.238697 315.193115,62.882664 
	C311.994843,74.509537 310.125031,86.599152 305.904266,97.819244 
	C301.925476,108.396233 301.762878,119.322891 299.682587,130.052414 
	C293.930176,159.721542 293.371277,189.701248 295.449921,219.603912 
	C296.859802,239.885742 300.395996,260.089844 304.121307,280.116638 
	C306.719025,294.081726 310.926575,307.784058 315.019989,321.422211 
	C318.084503,331.632355 321.997681,341.596802 325.773224,351.579803 
	C327.162872,355.254150 329.241394,358.667969 330.888794,362.984802 
	C329.299377,364.198456 327.838898,364.940918 326.351959,364.998291 
	C322.027527,365.165161 317.692535,365.057922 313.361664,365.057617 
	C303.633698,365.056976 303.640717,365.055511 301.834595,355.378571 
	C301.683350,354.568237 301.314117,353.801178 301.109650,352.997864 
	C297.856384,340.216370 294.543671,327.449310 291.419281,314.636322 
	C290.680786,311.607666 290.734802,308.394531 290.162018,305.315033 
	C288.511841,296.442810 286.286072,287.654114 285.100708,278.724518 
	C283.371368,265.697296 282.232849,252.586456 281.069000,239.491119 
	C280.197357,229.683517 279.034698,219.834732 279.177399,210.021393 
	C279.346863,198.365692 277.894196,186.732391 280.632965,174.974792 
	C282.764679,165.823318 282.275757,156.060455 282.941132,146.568573 
	C284.278656,127.487679 284.245331,108.285774 289.826416,89.657745 
	C292.116608,82.013794 292.753876,73.889969 294.505066,66.065468 
	C296.965546,55.071793 299.631409,44.119007 302.489899,33.222313 
	C303.465973,29.501644 304.392303,25.254818 309.500275,24.721720 
z"/>
<path fill="#060606" opacity="1.000000" stroke="none" 
	d="
M349.690125,55.066643 
	C351.631378,56.560871 353.572601,58.055103 355.966858,59.898026 
	C353.800629,63.713085 351.855042,67.867378 349.256866,71.562843 
	C343.962646,79.092865 340.582855,87.535172 337.170990,95.941399 
	C333.315247,105.441216 329.256531,114.943825 326.528717,124.789490 
	C324.327942,132.732803 324.564941,141.325806 322.681641,149.387939 
	C318.295471,168.164780 318.235596,187.146820 318.873840,206.203369 
	C319.088776,212.620392 319.283112,219.083801 320.205200,225.421509 
	C321.904022,237.097900 323.314148,248.918121 326.373871,260.266083 
	C329.436279,271.624176 334.259949,282.520081 338.518982,293.538391 
	C341.351593,300.866394 344.236725,308.205963 347.682709,315.254730 
	C350.335327,320.680725 353.939270,325.637238 357.045502,330.847046 
	C360.730591,337.027588 365.308075,342.431213 370.605591,347.296448 
	C373.807617,350.237183 376.678802,353.535187 379.781677,356.588257 
	C381.124420,357.909454 382.649445,359.052734 384.141052,360.213409 
	C385.802246,361.506012 387.519592,362.726471 389.256012,364.352875 
	C380.153076,364.822510 371.006561,364.968201 361.860321,364.951752 
	C360.653198,364.949554 358.945038,364.481140 358.322998,363.615173 
	C354.327576,358.052734 350.324188,352.466583 346.810211,346.596741 
	C343.830597,341.619659 341.793304,336.080078 338.834442,331.088531 
	C332.317657,320.094818 327.612793,308.396637 324.497803,296.054504 
	C321.052826,282.404694 317.755035,268.716888 314.523254,255.014938 
	C313.958588,252.620926 314.162079,250.056625 313.795990,247.603012 
	C312.236206,237.148331 309.287048,226.708054 309.268311,216.258163 
	C309.233643,196.949799 306.947693,177.551346 310.818787,158.273041 
	C312.651703,149.144882 313.114319,139.746780 314.371460,130.494568 
	C314.738953,127.789894 315.735443,125.174095 316.389343,122.504257 
	C317.909027,116.299393 320.079620,110.186264 321.583344,104.107971 
	C325.028961,90.180222 329.804016,76.982513 336.446167,64.348724 
	C337.956085,61.476845 339.487122,58.490147 340.224335,55.370972 
	C341.079163,51.754250 342.953461,51.078049 346.081665,51.957085 
	C346.374115,52.055904 346.666565,52.154724 347.047668,52.839256 
	C347.987579,53.972195 348.838867,54.519417 349.690125,55.066643 
z"/>
<path fill="#050505" opacity="1.000000" stroke="none" 
	d="
M106.554344,363.849426 
	C110.985893,360.130280 115.510521,356.514587 119.808952,352.647461 
	C121.895416,350.770447 123.284271,348.074921 125.466080,346.355316 
	C131.250305,341.796448 134.609344,335.348969 138.880203,329.648468 
	C142.053970,325.412231 144.576172,320.632904 146.978363,315.887848 
	C149.777863,310.357910 152.110977,304.592896 154.681763,298.945953 
	C159.085770,289.272095 163.086334,279.518494 165.165314,268.968872 
	C167.219666,258.544250 170.220657,248.308701 172.653259,237.954224 
	C173.217957,235.550568 173.150635,232.999893 173.392883,230.518723 
	C174.225418,221.991882 175.066299,213.465836 176.244492,204.320435 
	C176.986404,203.186371 177.727982,202.677612 177.737564,202.155380 
	C177.856689,195.671356 177.920807,189.184601 177.821442,182.701263 
	C177.812546,182.120117 176.567642,181.557922 175.896729,180.986938 
	C174.906738,170.336609 174.687546,159.542557 172.735413,149.071609 
	C170.184509,135.388931 167.608597,121.424561 162.489639,108.600792 
	C158.636490,98.948105 156.996414,88.100182 149.511627,79.760307 
	C145.848465,75.678642 143.893417,70.006721 141.422028,64.929573 
	C139.153610,60.269341 140.755524,56.960144 146.299545,55.205048 
	C147.250015,54.226246 147.548340,53.472717 147.846680,52.719185 
	C148.037491,52.454727 148.228302,52.190269 149.068939,52.002289 
	C151.144089,52.853821 153.314041,53.276306 153.874847,54.460709 
	C157.735886,62.615063 161.180878,70.965210 164.940857,79.169342 
	C166.116241,81.734009 165.859131,85.526581 169.964478,85.994293 
	C169.997543,86.440552 170.030609,86.886810 169.773972,87.894073 
	C171.354904,96.316147 173.119644,104.205978 175.235962,112.000351 
	C175.488373,112.929932 177.656555,113.339348 178.936737,113.989868 
	C178.975998,114.439789 179.015244,114.889709 178.736282,115.940620 
	C178.967117,121.535469 179.444489,126.539177 180.128448,131.514481 
	C180.258209,132.458298 181.207031,133.289490 181.811691,134.523041 
	C181.860382,135.579056 181.875305,136.284698 181.632050,137.283569 
	C181.649399,142.184433 181.689453,146.820938 182.250320,151.393539 
	C183.356400,160.411072 185.331467,169.358261 185.875534,178.399048 
	C186.514938,189.024307 186.020187,199.718063 186.004852,210.382111 
	C186.002945,211.712555 186.053802,213.061768 185.861679,214.370193 
	C184.613602,222.870270 183.226257,231.350494 182.040512,239.858963 
	C181.035919,247.067490 180.539383,254.358749 179.255554,261.512482 
	C178.308411,266.790222 176.341217,271.876740 175.031647,277.099396 
	C172.875198,285.699310 171.491974,294.546448 168.661423,302.909882 
	C165.416565,312.497437 161.012329,321.698639 156.976212,331.008911 
	C155.681961,333.994446 154.138245,336.908813 152.390106,339.652802 
	C149.053665,344.889984 144.900696,349.689240 142.159805,355.203674 
	C138.324539,362.919891 132.764343,366.114105 124.305664,365.127594 
	C118.418945,364.441040 112.473534,364.257599 106.554344,363.849426 
z"/>
<path fill="#2C2829" opacity="1.000000" stroke="none" 
	d="
M309.297119,24.413078 
	C304.392303,25.254818 303.465973,29.501644 302.489899,33.222313 
	C299.631409,44.119007 296.965546,55.071793 294.505066,66.065468 
	C292.753876,73.889969 292.116608,82.013794 289.826416,89.657745 
	C284.245331,108.285774 284.278656,127.487679 282.941132,146.568573 
	C282.275757,156.060455 282.764679,165.823318 280.632965,174.974792 
	C277.894196,186.732391 279.346863,198.365692 279.177399,210.021393 
	C279.034698,219.834732 280.197357,229.683517 281.069000,239.491119 
	C282.232849,252.586456 283.371368,265.697296 285.100708,278.724518 
	C286.286072,287.654114 288.511841,296.442810 290.162018,305.315033 
	C290.734802,308.394531 290.680786,311.607666 291.419281,314.636322 
	C294.543671,327.449310 297.856384,340.216370 301.109650,352.997864 
	C301.314117,353.801178 301.683350,354.568237 301.834595,355.378571 
	C303.640717,365.055511 303.633698,365.056976 313.361664,365.057617 
	C317.692535,365.057922 322.027527,365.165161 326.351959,364.998291 
	C327.838898,364.940918 329.299377,364.198456 330.890686,363.375000 
	C334.220001,364.050995 333.647278,365.611481 331.294830,366.878540 
	C329.454376,367.869843 327.354401,368.876160 325.335846,368.950043 
	C318.351746,369.205536 311.346619,369.209412 304.364960,368.927155 
	C303.030518,368.873230 300.965637,367.319611 300.594299,366.058472 
	C297.136627,354.316406 294.679871,342.233795 290.549530,330.747314 
	C285.443085,316.546417 284.876282,301.759033 282.869415,287.134003 
	C281.165344,274.715729 279.579193,262.281342 277.916626,249.857346 
	C273.880310,219.694778 275.377808,189.414246 276.520813,159.195358 
	C277.044891,145.339401 279.442535,131.543381 281.218231,117.749496 
	C282.418427,108.425919 283.625641,99.072472 285.534088,89.878593 
	C287.953827,78.221519 290.972229,66.682930 293.945526,55.148167 
	C296.942230,43.522549 300.199951,31.964205 303.751831,18.870502 
	C305.877411,20.953009 307.485687,22.528723 309.297119,24.413078 
z"/>
<path fill="#2D2A2B" opacity="1.000000" stroke="none" 
	d="
M164.823227,367.758240 
	C169.946106,367.295502 175.256378,367.053009 180.568192,367.011505 
	C189.799088,366.939392 190.094925,367.085815 192.718597,358.873016 
	C196.078125,348.356812 199.051559,337.709076 201.874619,327.034241 
	C202.838348,323.390045 202.719437,319.472839 203.315369,315.715271 
	C204.492371,308.293915 205.220734,300.731628 207.199844,293.519958 
	C213.875229,269.195618 213.437103,244.284317 214.076889,219.442322 
	C214.380432,207.656082 215.314438,195.845871 214.860031,184.089157 
	C214.047699,163.072144 212.741028,142.058487 210.963409,121.100899 
	C210.016144,109.933029 208.058090,98.802155 205.810394,87.807060 
	C203.570526,76.850327 200.422913,66.077820 197.626724,55.236557 
	C195.267151,46.088131 192.913010,36.936710 190.366638,27.839752 
	C189.982407,26.467062 188.564087,25.383833 187.260971,24.056761 
	C188.022247,22.704594 189.146637,21.462376 191.116760,19.285822 
	C194.248932,29.838648 197.350082,39.430664 199.914169,49.164162 
	C202.530746,59.097088 203.973526,69.374718 207.080688,79.135178 
	C212.720963,96.852776 213.154785,115.200706 214.981674,133.398758 
	C215.475769,138.320572 215.124130,143.416550 216.261566,148.169128 
	C221.345749,169.412460 218.766602,190.978241 219.363831,212.398056 
	C219.614044,221.372147 219.520203,230.428375 218.610626,239.348129 
	C216.254532,262.453033 213.744965,285.557495 210.494934,308.548828 
	C209.116608,318.299286 205.759872,327.773499 203.251083,337.359863 
	C200.723312,347.018768 198.230118,356.689392 195.456375,366.278137 
	C195.067154,367.623718 193.200165,369.449585 191.961121,369.494171 
	C183.975922,369.781433 175.974228,369.689453 167.980515,369.562073 
	C166.983109,369.546204 166.000671,368.589661 164.823227,367.758240 
z"/>
<path fill="#2F2C2D" opacity="1.000000" stroke="none" 
	d="
M345.831543,51.717590 
	C342.953461,51.078049 341.079163,51.754250 340.224335,55.370972 
	C339.487122,58.490147 337.956085,61.476845 336.446167,64.348724 
	C329.804016,76.982513 325.028961,90.180222 321.583344,104.107971 
	C320.079620,110.186264 317.909027,116.299393 316.389343,122.504257 
	C315.735443,125.174095 314.738953,127.789894 314.371460,130.494568 
	C313.114319,139.746780 312.651703,149.144882 310.818787,158.273041 
	C306.947693,177.551346 309.233643,196.949799 309.268311,216.258163 
	C309.287048,226.708054 312.236206,237.148331 313.795990,247.603012 
	C314.162079,250.056625 313.958588,252.620926 314.523254,255.014938 
	C317.755035,268.716888 321.052826,282.404694 324.497803,296.054504 
	C327.612793,308.396637 332.317657,320.094818 338.834442,331.088531 
	C341.793304,336.080078 343.830597,341.619659 346.810211,346.596741 
	C350.324188,352.466583 354.327576,358.052734 358.322998,363.615173 
	C358.945038,364.481140 360.653198,364.949554 361.860321,364.951752 
	C371.006561,364.968201 380.153076,364.822510 389.611420,364.460724 
	C390.603027,364.739960 391.282745,365.285858 391.962433,365.831787 
	C391.960968,366.330780 391.959473,366.829773 391.958008,367.328766 
	C388.587280,367.924744 385.235138,368.847717 381.841553,369.040375 
	C376.697693,369.332458 371.394928,368.391449 366.395386,369.288330 
	C359.071869,370.602081 354.882782,366.073120 351.418304,361.605255 
	C346.464294,355.216522 342.392975,348.143402 338.505096,340.895813 
	C334.460541,333.356171 331.913116,325.137512 327.360992,317.892181 
	C326.267822,316.152252 325.706543,314.027100 325.147339,312.010712 
	C320.775696,296.247589 315.216003,280.682343 312.457581,264.637512 
	C309.180328,245.575134 307.195374,226.123322 306.727539,206.789993 
	C306.209717,185.391510 307.283783,163.869949 309.149689,142.531845 
	C310.176239,130.791977 314.017365,119.256569 317.033051,107.745163 
	C319.550079,98.137215 322.561646,88.648827 325.658813,79.207405 
	C327.032196,75.020721 329.037567,71.022697 330.967468,67.041519 
	C334.037292,60.708889 337.284119,54.462090 340.913391,47.273140 
	C342.723419,48.903614 344.152435,50.190853 345.831543,51.717590 
z"/>
<path fill="#2F2C2D" opacity="1.000000" stroke="none" 
	d="
M106.280937,363.816345 
	C112.473534,364.257599 118.418945,364.441040 124.305664,365.127594 
	C132.764343,366.114105 138.324539,362.919891 142.159805,355.203674 
	C144.900696,349.689240 149.053665,344.889984 152.390106,339.652802 
	C154.138245,336.908813 155.681961,333.994446 156.976212,331.008911 
	C161.012329,321.698639 165.416565,312.497437 168.661423,302.909882 
	C171.491974,294.546448 172.875198,285.699310 175.031647,277.099396 
	C176.341217,271.876740 178.308411,266.790222 179.255554,261.512482 
	C180.539383,254.358749 181.035919,247.067490 182.040512,239.858963 
	C183.226257,231.350494 184.613602,222.870270 185.861679,214.370193 
	C186.053802,213.061768 186.002945,211.712555 186.004852,210.382111 
	C186.020187,199.718063 186.514938,189.024307 185.875534,178.399048 
	C185.331467,169.358261 183.356400,160.411072 182.250320,151.393539 
	C181.689453,146.820938 181.649399,142.184433 181.976959,137.294312 
	C183.038361,137.014008 183.496704,137.016235 183.955048,137.018478 
	C184.704834,140.372665 185.629364,143.698608 186.176376,147.085556 
	C190.036758,170.987915 190.378906,195.106201 188.680771,219.124985 
	C187.613144,234.225937 184.132401,249.155060 181.764862,264.166107 
	C181.092728,268.427643 180.965149,272.826813 179.826416,276.952698 
	C177.152954,286.639404 174.123978,296.232819 171.036957,305.798828 
	C168.826462,312.648712 166.819489,319.642700 163.769714,326.124451 
	C159.465256,335.272858 156.299240,345.059814 149.322220,352.860504 
	C145.876297,356.713226 143.190201,361.245270 140.156998,365.467529 
	C138.195740,368.197723 135.891281,369.882141 132.166336,369.739716 
	C125.017387,369.466431 117.821907,370.023071 110.706909,369.461029 
	C108.252762,369.267212 105.980583,366.769714 104.015060,365.066467 
	C104.689888,364.661438 104.876213,364.433716 104.963814,364.125183 
	C105.311722,364.011230 105.659630,363.897247 106.280937,363.816345 
z"/>
<path fill="#2F2C2D" opacity="1.000000" stroke="none" 
	d="
M170.151794,85.775436 
	C165.859131,85.526581 166.116241,81.734009 164.940857,79.169342 
	C161.180878,70.965210 157.735886,62.615063 153.874847,54.460709 
	C153.314041,53.276306 151.144089,52.853821 149.319641,52.018478 
	C150.480789,50.774075 152.041031,49.589958 153.715729,48.318985 
	C156.989594,54.836170 160.115814,60.521000 162.739288,66.429085 
	C165.521393,72.694420 167.825974,79.171806 170.151794,85.775436 
z"/>
<path fill="#2F2C2D" opacity="1.000000" stroke="none" 
	d="
M179.145355,113.747009 
	C177.656555,113.339348 175.488373,112.929932 175.235962,112.000351 
	C173.119644,104.205978 171.354904,96.316147 169.738159,88.228584 
	C173.526947,87.717705 171.928650,90.634407 172.426102,92.104057 
	C174.829849,99.205452 177.061371,106.365135 179.145355,113.747009 
z"/>
<path fill="#404040" opacity="1.000000" stroke="none" 
	d="
M175.509827,181.187286 
	C176.567642,181.557922 177.812546,182.120117 177.821442,182.701263 
	C177.920807,189.184601 177.856689,195.671356 177.737564,202.155380 
	C177.727982,202.677612 176.986404,203.186371 176.211273,203.867935 
	C175.599365,196.485535 175.361145,188.936600 175.509827,181.187286 
z"/>
<path fill="#2F2C2D" opacity="1.000000" stroke="none" 
	d="
M181.777924,134.172653 
	C181.207031,133.289490 180.258209,132.458298 180.128448,131.514481 
	C179.444489,126.539177 178.967117,121.535469 178.690186,116.276276 
	C180.003006,120.375908 181.043701,124.740860 181.991837,129.927383 
	C181.858841,131.890182 181.818390,133.031418 181.777924,134.172653 
z"/>
<path fill="#919191" opacity="1.000000" stroke="none" 
	d="
M246.341293,302.928864 
	C245.991989,301.867767 246.044037,300.790100 246.560028,299.291931 
	C248.987823,299.917694 250.951660,300.963928 252.915512,302.010193 
	C253.213058,302.803650 253.510605,303.597107 253.880112,304.715698 
	C251.548920,304.331329 249.145782,303.621826 246.341293,302.928864 
z"/>
<path fill="#4C4949" opacity="1.000000" stroke="none" 
	d="
M181.811691,134.523041 
	C181.818390,133.031418 181.858841,131.890182 181.973053,130.327881 
	C182.741776,132.006866 183.436722,134.106888 184.043350,136.612701 
	C183.496704,137.016235 183.038361,137.014008 182.235138,137.001053 
	C181.875305,136.284698 181.860382,135.579056 181.811691,134.523041 
z"/>
<path fill="#2F2C2D" opacity="1.000000" stroke="none" 
	d="
M349.570801,54.789589 
	C348.838867,54.519417 347.987579,53.972195 347.144043,53.070145 
	C347.918335,53.314392 348.684906,53.913464 349.570801,54.789589 
z"/>
<path fill="#2D2A2B" opacity="1.000000" stroke="none" 
	d="
M163.503662,363.861206 
	C164.105133,364.635742 164.433182,365.627045 164.657120,367.000305 
	C164.112076,366.280823 163.671158,365.179413 163.503662,363.861206 
z"/>
<path fill="#2F2C2D" opacity="1.000000" stroke="none" 
	d="
M147.547699,52.795746 
	C147.548340,53.472717 147.250015,54.226246 146.627228,55.022640 
	C146.618088,54.334442 146.933411,53.603374 147.547699,52.795746 
z"/>
<path fill="#050505" opacity="1.000000" stroke="none" 
	d="
M104.685730,364.103760 
	C104.876213,364.433716 104.689888,364.661438 104.199875,364.903748 
	C104.132484,364.693512 104.270065,364.387939 104.685730,364.103760 
z"/>
<path fill="#C8C8C8" opacity="1.000000" stroke="none" 
	d="
M252.901306,301.746002 
	C250.951660,300.963928 248.987823,299.917694 246.630310,298.893372 
	C246.077347,297.132324 245.918060,295.349274 245.732468,293.271729 
	C246.979874,292.530548 248.865448,291.410156 251.113770,290.074219 
	C251.663467,291.686279 252.266861,293.455841 252.650238,295.880371 
	C252.529678,297.484711 252.629135,298.434052 252.728592,299.383392 
	C252.781433,300.082855 252.834274,300.782349 252.901306,301.746002 
z"/>
<path fill="#919191" opacity="1.000000" stroke="none" 
	d="
M252.800903,299.084229 
	C252.629135,298.434052 252.529678,297.484711 252.724106,296.258545 
	C252.969727,296.916138 252.921463,297.850616 252.800903,299.084229 
z"/>
</svg>